<svg width="60" height="60" viewBox="0 0 60 60" fill="none" xmlns="http://www.w3.org/2000/svg">
<path d="M35.8563 35.0173L38.5169 35.2965V56.9531L31.1678 49.1057V36.621L33.3023 37.6634L35.8563 35.0173ZM24.1434 35.0173L21.4813 35.2965V56.9531L28.8303 49.1057V36.621L26.696 37.6634L24.1434 35.0173ZM44.2973 21.4493L45.1583 24.4463L42.5737 26.1888L42.3573 29.3026L39.3326 30.0555L38.0667 32.9048L34.9659 32.5773L32.8008 34.8141L29.9998 33.4457L27.1988 34.8141L25.0338 32.5699L21.933 32.8975L20.667 30.0483L17.6424 29.3026L17.426 26.1932L14.834 24.4447L15.6951 21.4479L13.8677 18.9232L15.701 16.4013L14.834 13.4104L17.4201 11.6678L17.6365 8.5582L20.667 7.81266L21.933 4.96348L25.0338 5.2909L27.1988 3.04688L29.9998 4.41527L32.8008 3.04688L34.9659 5.2909L38.0667 4.96348L39.3326 7.81266L42.3573 8.56559L42.5737 11.675L45.1583 13.4176L44.2973 16.4146L46.132 18.9232L44.2973 21.4493ZM38.53 18.9232C38.53 17.2488 38.0335 15.612 37.1033 14.2198C36.173 12.8276 34.8508 11.7425 33.3039 11.1018C31.757 10.461 30.0548 10.2934 28.4126 10.62C26.7703 10.9467 25.2619 11.753 24.0779 12.9369C22.8939 14.1209 22.0876 15.6294 21.761 17.2716C21.4343 18.9138 21.602 20.616 22.2427 22.1629C22.8835 23.7099 23.9686 25.0321 25.3608 25.9623C26.753 26.8925 28.3898 27.3891 30.0642 27.3891C32.3084 27.3856 34.4597 26.4925 36.0466 24.9056C37.6335 23.3187 38.5265 21.1674 38.53 18.9232ZM30.0642 12.7963C28.8524 12.7963 27.6679 13.1556 26.6603 13.8288C25.6528 14.502 24.8675 15.4589 24.4038 16.5784C23.94 17.698 23.8187 18.9298 24.0551 20.1183C24.2915 21.3068 24.875 22.3985 25.7318 23.2553C26.5887 24.1122 27.6803 24.6957 28.8688 24.9321C30.0573 25.1686 31.2892 25.0472 32.4087 24.5835C33.5282 24.1198 34.4851 23.3346 35.1584 22.327C35.8316 21.3195 36.1909 20.135 36.191 18.9232C36.1863 17.3001 35.5392 15.7449 34.3911 14.5976C33.243 13.4503 31.6873 12.8042 30.0642 12.8007V12.7963Z" fill="#135452"/>
</svg>
