<svg width="60" height="60" viewBox="0 0 60 60" fill="none" xmlns="http://www.w3.org/2000/svg">
<path d="M45 25C44.337 25 43.7011 24.7366 43.2322 24.2678C42.7634 23.7989 42.5 23.163 42.5 22.5C42.5 21.837 42.7634 21.2011 43.2322 20.7322C43.7011 20.2634 44.337 20 45 20C45.663 20 46.2989 20.2634 46.7678 20.7322C47.2366 21.2011 47.5 21.837 47.5 22.5C47.5 23.163 47.2366 23.7989 46.7678 24.2678C46.2989 24.7366 45.663 25 45 25ZM30 25H15V12.5H30M49.425 18.075L49.45 18.05L40.15 8.75L37.5 11.4L42.775 16.675C40.425 17.5 38.75 19.825 38.75 22.5C38.75 23.3208 38.9117 24.1335 39.2258 24.8918C39.5398 25.6501 40.0002 26.3391 40.5806 26.9194C41.7527 28.0915 43.3424 28.75 45 28.75C45.9 28.75 46.725 28.55 47.5 28.225V46.25C47.5 46.913 47.2366 47.5489 46.7678 48.0178C46.2989 48.4866 45.663 48.75 45 48.75C44.337 48.75 43.7011 48.4866 43.2322 48.0178C42.7634 47.5489 42.5 46.913 42.5 46.25V35C42.5 33.6739 41.9732 32.4021 41.0355 31.4645C40.0979 30.5268 38.8261 30 37.5 30H35V12.5C35 11.1739 34.4732 9.90215 33.5355 8.96447C32.5979 8.02678 31.3261 7.5 30 7.5H15C12.225 7.5 10 9.725 10 12.5V52.5H35V33.75H38.75V46.25C38.75 47.9076 39.4085 49.4973 40.5806 50.6694C41.7527 51.8415 43.3424 52.5 45 52.5C45.8208 52.5 46.6335 52.3383 47.3918 52.0242C48.1501 51.7102 48.8391 51.2498 49.4194 50.6694C49.9998 50.0891 50.4602 49.4001 50.7742 48.6418C51.0883 47.8835 51.25 47.0708 51.25 46.25V22.5C51.25 20.775 50.55 19.2 49.425 18.075Z" fill="#135452"/>
</svg>
