<svg width="60" height="60" viewBox="0 0 60 60" fill="none" xmlns="http://www.w3.org/2000/svg">
<path opacity="0.3" d="M45 25H15C12.9 25 11.125 26.3 10.375 28.125L38.15 34.925C38.925 35.125 39.75 34.925 40.35 34.425L49.075 27.125C48.15 25.85 46.675 25 45 25ZM45 15H15C12.25 15 10 17.25 10 20V21.375C11.475 20.525 13.175 20 15 20H45C46.825 20 48.525 20.525 50 21.375V20C50 17.25 47.75 15 45 15Z" fill="#135452"/>
<path d="M45 10H15C9.475 10 5 14.475 5 20V40C5 45.525 9.475 50 15 50H45C50.525 50 55 45.525 55 40V20C55 14.475 50.525 10 45 10ZM40.35 34.425C39.75 34.925 38.925 35.125 38.15 34.925L10.375 28.125C11.125 26.3 12.9 25 15 25H45C46.675 25 48.15 25.85 49.075 27.1L40.35 34.425ZM50 21.375C48.525 20.525 46.825 20 45 20H15C13.175 20 11.475 20.525 10 21.375V20C10 17.25 12.25 15 15 15H45C47.75 15 50 17.25 50 20V21.375Z" fill="#135452"/>
</svg>
