<svg width="63" height="63" viewBox="0 0 63 63" fill="none" xmlns="http://www.w3.org/2000/svg">
<path d="M31.5 57.75C45.9975 57.75 57.75 45.9975 57.75 31.5C57.75 17.0025 45.9975 5.25 31.5 5.25C17.0025 5.25 5.25 17.0025 5.25 31.5C5.25 45.9975 17.0025 57.75 31.5 57.75Z" stroke="white" stroke-width="4" stroke-linecap="round" stroke-linejoin="round"/>
<path d="M31.5 14.25C33.4891 14.25 35.3968 15.0402 36.8033 16.4467C38.2098 17.8532 39 19.7609 39 21.75C39 23.7391 38.2098 25.6468 36.8033 27.0533C35.3968 28.4598 33.4891 29.25 31.5 29.25C29.5109 29.25 27.6032 28.4598 26.1967 27.0533C24.7902 25.6468 24 23.7391 24 21.75C24 19.7609 24.7902 17.8532 26.1967 16.4467C27.6032 15.0402 29.5109 14.25 31.5 14.25ZM31.5 33C39.7875 33 46.5 36.3563 46.5 40.5V44.25H16.5V40.5C16.5 36.3563 23.2125 33 31.5 33Z" fill="white"/>
</svg>
