<svg width="45" height="44" viewBox="0 0 45 44" fill="none" xmlns="http://www.w3.org/2000/svg">
<g opacity="0.8" clip-path="url(#clip0_302_1539)">
<path d="M22.5 27.5002C25.6066 27.5002 28.125 25.0377 28.125 22.0002C28.125 18.9626 25.6066 16.5002 22.5 16.5002C19.3934 16.5002 16.875 18.9626 16.875 22.0002C16.875 25.0377 19.3934 27.5002 22.5 27.5002Z" stroke="#E1E1E1" stroke-width="4" stroke-linecap="round" stroke-linejoin="round"/>
<path d="M36.375 27.5002C36.1254 28.0531 36.051 28.6665 36.1612 29.2612C36.2715 29.856 36.5615 30.4048 36.9937 30.8368L37.1063 30.9468C37.4549 31.2874 37.7315 31.6918 37.9202 32.1369C38.1089 32.582 38.2061 33.0591 38.2061 33.541C38.2061 34.0229 38.1089 34.5 37.9202 34.9451C37.7315 35.3902 37.4549 35.7946 37.1063 36.1352C36.758 36.4761 36.3444 36.7465 35.8892 36.9311C35.4339 37.1156 34.9459 37.2106 34.4531 37.2106C33.9603 37.2106 33.4723 37.1156 33.0171 36.9311C32.5619 36.7465 32.1483 36.4761 31.8 36.1352L31.6875 36.0252C31.2456 35.6025 30.6843 35.319 30.0761 35.2112C29.4679 35.1033 28.8405 35.1761 28.275 35.4202C27.7204 35.6526 27.2475 36.0384 26.9143 36.5303C26.5812 37.0222 26.4024 37.5986 26.4 38.1885V38.5002C26.4 39.4726 26.0049 40.4053 25.3016 41.0929C24.5984 41.7805 23.6446 42.1668 22.65 42.1668C21.6554 42.1668 20.7016 41.7805 19.9984 41.0929C19.2951 40.4053 18.9 39.4726 18.9 38.5002V38.3352C18.8855 37.7283 18.6846 37.1398 18.3235 36.6461C17.9623 36.1524 17.4576 35.7764 16.875 35.5668C16.3095 35.3228 15.6821 35.25 15.0739 35.3578C14.4657 35.4657 13.9044 35.7492 13.4625 36.1718L13.35 36.2818C13.0017 36.6227 12.5881 36.8932 12.1329 37.0777C11.6777 37.2622 11.1897 37.3572 10.6969 37.3572C10.2041 37.3572 9.71609 37.2622 9.26085 37.0777C8.80561 36.8932 8.39202 36.6227 8.04375 36.2818C7.69509 35.9413 7.41849 35.5369 7.22978 35.0918C7.04106 34.6467 6.94392 34.1695 6.94392 33.6877C6.94392 33.2058 7.04106 32.7287 7.22978 32.2836C7.41849 31.8384 7.69509 31.434 8.04375 31.0935L8.15625 30.9835C8.58851 30.5514 8.87847 30.0026 8.98876 29.4079C9.09904 28.8132 9.02459 28.1998 8.775 27.6468C8.53732 27.1046 8.14267 26.6421 7.63962 26.3164C7.13658 25.9907 6.5471 25.8159 5.94375 25.8135H5.625C4.63044 25.8135 3.67661 25.4272 2.97335 24.7396C2.27009 24.0519 1.875 23.1193 1.875 22.1468C1.875 21.1744 2.27009 20.2417 2.97335 19.5541C3.67661 18.8665 4.63044 18.4802 5.625 18.4802H5.79375C6.41436 18.466 7.01626 18.2695 7.52119 17.9164C8.02611 17.5633 8.41072 17.0698 8.625 16.5002C8.87459 15.9472 8.94904 15.3338 8.83876 14.7391C8.72847 14.1444 8.43851 13.5956 8.00625 13.1635L7.89375 13.0535C7.54509 12.713 7.26849 12.3086 7.07978 11.8634C6.89106 11.4183 6.79393 10.9412 6.79393 10.4593C6.79393 9.97747 6.89106 9.50034 7.07978 9.05522C7.26849 8.61009 7.54509 8.2057 7.89375 7.86516C8.24202 7.52425 8.65561 7.2538 9.11085 7.06928C9.56609 6.88476 10.0541 6.78978 10.5469 6.78978C11.0397 6.78978 11.5277 6.88476 11.9829 7.06928C12.4381 7.2538 12.8517 7.52425 13.2 7.86516L13.3125 7.97516C13.7544 8.39781 14.3157 8.68134 14.9239 8.78917C15.5321 8.89701 16.1595 8.82421 16.725 8.58016H16.875C17.4296 8.34776 17.9025 7.96188 18.2357 7.47002C18.5688 6.97815 18.7476 6.40177 18.75 5.81183V5.50016C18.75 4.5277 19.1451 3.59507 19.8484 2.90744C20.5516 2.2198 21.5054 1.8335 22.5 1.8335C23.4946 1.8335 24.4484 2.2198 25.1516 2.90744C25.8549 3.59507 26.25 4.5277 26.25 5.50016V5.66516C26.2524 6.2551 26.4312 6.83148 26.7643 7.32335C27.0975 7.81522 27.5704 8.2011 28.125 8.4335C28.6905 8.67754 29.3179 8.75034 29.9261 8.6425C30.5343 8.53467 31.0956 8.25115 31.5375 7.8285L31.65 7.7185C31.9983 7.37758 32.4119 7.10713 32.8671 6.92261C33.3223 6.73809 33.8103 6.64311 34.3031 6.64311C34.7959 6.64311 35.2839 6.73809 35.7392 6.92261C36.1944 7.10713 36.608 7.37758 36.9562 7.7185C37.3049 8.05903 37.5815 8.46342 37.7702 8.90855C37.9589 9.35368 38.0561 9.83081 38.0561 10.3127C38.0561 10.7945 37.9589 11.2717 37.7702 11.7168C37.5815 12.1619 37.3049 12.5663 36.9562 12.9068L36.8437 13.0168C36.4115 13.4489 36.1215 13.9977 36.0112 14.5924C35.901 15.1871 35.9754 15.8005 36.225 16.3535V16.5002C36.4627 17.0424 36.8573 17.5049 37.3604 17.8306C37.8634 18.1563 38.4529 18.3311 39.0562 18.3335H39.375C40.3696 18.3335 41.3234 18.7198 42.0266 19.4074C42.7299 20.0951 43.125 21.0277 43.125 22.0002C43.125 22.9726 42.7299 23.9053 42.0266 24.5929C41.3234 25.2805 40.3696 25.6668 39.375 25.6668H39.2062C38.6029 25.6692 38.0134 25.844 37.5104 26.1697C37.0073 26.4955 36.6127 26.9579 36.375 27.5002Z" stroke="#E1E1E1" stroke-width="4" stroke-linecap="round" stroke-linejoin="round"/>
</g>
<defs>
<clipPath id="clip0_302_1539">
<rect width="45" height="44" fill="white"/>
</clipPath>
</defs>
</svg>
