<svg width="100" height="100" viewBox="0 0 100 100" fill="none" xmlns="http://www.w3.org/2000/svg">
<path d="M50 66.6667C47.7083 66.6667 45.7472 65.8514 44.1167 64.2208C42.4861 62.5903 41.6694 60.6278 41.6667 58.3333C41.6639 56.0389 42.4806 54.0778 44.1167 52.45C45.7528 50.8222 47.7139 50.0056 50 50C52.2861 49.9944 54.2486 50.8111 55.8875 52.45C57.5264 54.0889 58.3417 56.05 58.3333 58.3333C58.325 60.6167 57.5097 62.5792 55.8875 64.2208C54.2653 65.8625 52.3028 66.6778 50 66.6667ZM30.7292 29.1667H69.2708L77.6042 12.5H22.3958L30.7292 29.1667ZM35 87.5H65C71.25 87.5 76.5625 85.3306 80.9375 80.9917C85.3125 76.6528 87.5 71.3222 87.5 65C87.5 62.3611 87.0486 59.7917 86.1458 57.2917C85.243 54.7917 83.9583 52.5347 82.2917 50.5208L71.4583 37.5H28.5417L17.7083 50.5208C16.0417 52.5347 14.7569 54.7917 13.8542 57.2917C12.9514 59.7917 12.5 62.3611 12.5 65C12.5 71.3194 14.6708 76.65 19.0125 80.9917C23.3542 85.3333 28.6833 87.5028 35 87.5Z" fill="#135452"/>
</svg>
