<svg width="100" height="100" viewBox="0 0 100 100" fill="none" xmlns="http://www.w3.org/2000/svg">
<path fill-rule="evenodd" clip-rule="evenodd" d="M34.3747 25.0627V20.8335C34.3747 16.6895 36.0209 12.7152 38.9512 9.78495C41.8814 6.8547 45.8557 5.2085 49.9997 5.2085C54.1437 5.2085 58.118 6.8547 61.0483 9.78495C63.9785 12.7152 65.6247 16.6895 65.6247 20.8335V25.0627C70.9872 25.2252 74.2705 25.8002 76.7747 27.8793C80.2455 30.7627 81.1622 35.6377 82.9914 45.3918L86.1164 62.0585C88.6872 75.7752 89.9705 82.6335 86.2247 87.1502C82.4747 91.6668 75.4955 91.6668 61.5414 91.6668H38.458C24.4997 91.6668 17.5247 91.6668 13.7747 87.1502C10.0247 82.6335 11.3164 75.7752 13.883 62.0585L17.008 45.3918C18.8414 35.6418 19.7539 30.7627 23.2247 27.8793C25.7289 25.8002 29.0122 25.2252 34.3747 25.0627ZM40.6247 20.8335C40.6247 18.3471 41.6124 15.9625 43.3706 14.2044C45.1287 12.4462 47.5133 11.4585 49.9997 11.4585C52.4861 11.4585 54.8707 12.4462 56.6288 14.2044C58.387 15.9625 59.3747 18.3471 59.3747 20.8335V25.0002H40.6247V20.8335Z" fill="#135452"/>
</svg>
