<svg width="100" height="100" viewBox="0 0 100 100" fill="none" xmlns="http://www.w3.org/2000/svg">
<path d="M73.5833 46.6667C72.625 45.4167 71.4583 44.3333 70.375 43.25C67.5833 40.75 64.4166 38.9583 61.75 36.3333C55.5416 30.25 54.1666 20.2083 58.125 12.5C54.1666 13.4583 50.7083 15.625 47.75 18C36.9583 26.6667 32.7083 41.9583 37.7916 55.0833C37.9583 55.5 38.125 55.9167 38.125 56.4583C38.125 57.375 37.5 58.2083 36.6666 58.5417C35.7083 58.9583 34.7083 58.7083 33.9166 58.0417C33.6802 57.8436 33.4824 57.6034 33.3333 57.3333C28.625 51.375 27.875 42.8333 31.0416 36C24.0833 41.6667 20.2916 51.25 20.8333 60.2917C21.0833 62.375 21.3333 64.4583 22.0416 66.5417C22.625 69.0417 23.75 71.5417 25 73.75C29.5 80.9583 37.2916 86.125 45.6666 87.1667C54.5833 88.2917 64.125 86.6667 70.9583 80.5C78.5833 73.5833 81.25 62.5 77.3333 53L76.7916 51.9167C75.9166 50 73.5833 46.6667 73.5833 46.6667ZM60.4166 72.9167C59.25 73.9167 57.3333 75 55.8333 75.4167C51.1666 77.0833 46.5 74.75 43.75 72C48.7083 70.8333 51.6666 67.1667 52.5416 63.4583C53.25 60.125 51.9166 57.375 51.375 54.1667C50.875 51.0833 50.9583 48.4583 52.0833 45.5833C52.875 47.1667 53.7083 48.75 54.7083 50C57.9166 54.1667 62.9583 56 64.0416 61.6667C64.2083 62.25 64.2916 62.8333 64.2916 63.4583C64.4166 66.875 62.9166 70.625 60.4166 72.9167Z" fill="#135452"/>
</svg>
