<svg width="100" height="100" viewBox="0 0 100 100" fill="none" xmlns="http://www.w3.org/2000/svg">
<path d="M12.5 25H87.5V75H12.5V25ZM50 37.5C53.3152 37.5 56.4946 38.817 58.8388 41.1612C61.183 43.5054 62.5 46.6848 62.5 50C62.5 53.3152 61.183 56.4946 58.8388 58.8388C56.4946 61.183 53.3152 62.5 50 62.5C46.6848 62.5 43.5054 61.183 41.1612 58.8388C38.817 56.4946 37.5 53.3152 37.5 50C37.5 46.6848 38.817 43.5054 41.1612 41.1612C43.5054 38.817 46.6848 37.5 50 37.5ZM29.1667 33.3333C29.1667 35.5435 28.2887 37.6631 26.7259 39.2259C25.1631 40.7887 23.0435 41.6667 20.8333 41.6667V58.3333C23.0435 58.3333 25.1631 59.2113 26.7259 60.7741C28.2887 62.3369 29.1667 64.4565 29.1667 66.6667H70.8333C70.8333 64.4565 71.7113 62.3369 73.2741 60.7741C74.8369 59.2113 76.9565 58.3333 79.1667 58.3333V41.6667C76.9565 41.6667 74.8369 40.7887 73.2741 39.2259C71.7113 37.6631 70.8333 35.5435 70.8333 33.3333H29.1667Z" fill="#135452"/>
</svg>
